<?xml version="1.0" encoding="iso-8859-1"?>
<!-- Generator: Adobe Illustrator 16.0.0, SVG Export Plug-In . SVG Version: 6.00 Build 0)  -->
<!DOCTYPE svg PUBLIC "-//W3C//DTD SVG 1.1//EN" "http://www.w3.org/Graphics/SVG/1.1/DTD/svg11.dtd">
<svg version="1.1" id="Capa_1" xmlns="http://www.w3.org/2000/svg" xmlns:xlink="http://www.w3.org/1999/xlink" x="0px" y="0px"
	 width="791.955px" height="791.955px" viewBox="0 0 791.955 791.955" style="enable-background:new 0 0 791.955 791.955;"
	 xml:space="preserve">
<g>
	<g>
		<path d="M263.556,715.055c3.479-103.951,14.239-206.913,22.785-310.529c8.137-98.616,15.31-203.074-9.085-300.08 c12.794,4.412,26.028,3.251,35.056-8.995c9.109-12.353,9.085-30.497,6.226-44.851c-2.745-13.75-10.865-29.297-25.53-32.948 c-16.094-4.012-29.926,8.292-40.138,20.686c-4.828-11.283-12.688-21.535-25.652-22.818c-13.276-1.315-24.583,8.292-31.748,18.431 c-7.744,10.963-11.077,26.135-6.429,38.961c4.999,13.807,17.744,20.4,31.314,22.41c5.212,52.049-5.082,104.816-6.495,156.963 c-1.585,58.552,0.629,117.178,1.495,175.73c1.323,89.809-23.586,187.469,1.846,275.358c-9.722-4.175-20.399-5.947-30.415-1.667 c-11.013,4.706-16.144,16.258-17.622,27.459c-2.517,19.116,6.756,52.229,30.873,52.064c7.745-0.057,14.289-3.97,19.754-9.452 c0.874,4.567,2.721,8.717,6.168,11.83c8.342,7.54,20.146,3.496,28.651-1.479c10.392-6.079,19.484-14.927,26.862-24.362 c6.266-8.006,13.447-18.26,13.104-28.938C294.085,713.642,276.545,711.453,263.556,715.055z"/>
		<path d="M346.02,67.347c-9.436,5.441-17.156,13.349-18.324,24.942c-1.332,13.112,6.544,25.579,16.494,33.463 c9.706,7.688,22.957,12.442,34.64,6.315c12.304-6.446,14.19-21.928,12.843-35.089c46.6-5.359,91.647-2.132,138.157-2.573 c-6.168,8.529-10.285,18.725-5.792,28.471c4.845,10.498,18.488,12.622,28.741,12.009c20.456-1.226,59.091-16.29,47.311-43.422 c-2.713-6.25-7.794-11.135-13.587-15.122c9.878-2.802,19.387-7.565,23.284-16.576c4.901-11.348-1.561-22.475-9.42-30.595 c-9.117-9.428-21.232-16.045-33.373-20.677c-9.166-3.505-22.164-6.708-31.045-0.76c-12.523,8.39-6.47,25.865,0.303,38.283 c-20.253-2.377-41.919-0.098-61.804,0.074c-28.708,0.245-57.302-0.932-85.88-3.627c1.854-14.011,1.806-31.739-12.148-39.59 C365.358-3.361,351.126,1.516,341.6,8.33c-10.032,7.173-18.251,18.733-17.377,31.551C325.106,52.936,334.951,61.547,346.02,67.347 z"/>
		<path d="M362.556,464.385c18.071-5.352,20.416-25.383,18.283-41.354c54.271,3.243,109.67-3.113,164.022-4.371 c-2.532,9.656-2.655,20.023,4.362,27.851c7.395,8.251,20.318,7.77,30.146,5.481c10.735-2.5,21.404-8.26,28.953-16.348 c6.797-7.279,10.906-18.414,4.24-27.213c-2.524-3.333-5.76-5.866-9.362-7.867c5.923-2.696,11.225-6.414,14.64-11.838 c5.393-8.57,1.438-18.447-4.346-25.539c-6.454-7.9-15.816-13.235-24.853-17.63c-8.513-4.134-18.406-7.655-28.021-7.148 c-7.369,0.392-14.469,4.419-15.531,12.303c-1.185,8.791,2.721,17.834,7.476,25.653c-54.369-6.642-111.736-4.142-166.326,0.376 c1.838-15.016-3.84-31.846-16.25-40.53c-11.739-8.219-27.58-6.462-40.031-1.185c-12.156,5.155-22.262,16.127-23.218,29.647 c-0.866,12.247,7.229,22.009,16.936,29.248c-12.426,3.555-23.692,10.253-25.489,24.306c-1.928,15.057,10.588,28.046,21.674,36.199 C331.536,463.029,348.144,468.65,362.556,464.385z"/>
		<path d="M609.411,671.796c-11.83-10.04-30.979-16.715-44.565-5.947c-12.092,9.591-12.843,25.212-5.147,37.131 c-0.22,0.597-0.351,1.234-0.392,1.896c-0.294,0.376-0.588,0.752-0.866,1.136c-0.433-0.204-0.792-0.457-1.323-0.572 c-57.784-12.703-116.94-5.44-175.027,1.953c0.196-13.202-4.469-27.744-17.564-32.94c-10.947-4.338-23.954-0.498-33.128,6.152 c-9.461,6.862-16.364,17.327-14.42,29.361c1.487,9.216,8.513,14.901,16.715,18.807c-5.457,2.476-10.212,6.176-13.193,11.65 c-5.294,9.713-2.1,21.608,4.575,29.737c17.956,21.887,49.018,11.2,61.06-10.784c28.488,1.291,56.951-1.233,85.324-3.595 c23.782-1.977,48.087-1.609,71.844-3.741c-1.649,11.674-0.571,23.766,8.219,32.572c8.325,8.341,21.601,8.814,32.132,5.204 c10.857-3.726,20.276-12.271,23.234-23.554c2.745-10.473-2.018-19.656-8.986-26.935 C623.299,727.245,633.748,692.45,609.411,671.796z"/>
	</g>
</g>
<g>
</g>
<g>
</g>
<g>
</g>
<g>
</g>
<g>
</g>
<g>
</g>
<g>
</g>
<g>
</g>
<g>
</g>
<g>
</g>
<g>
</g>
<g>
</g>
<g>
</g>
<g>
</g>
<g>
</g>
</svg>
