<?xml version="1.0" encoding="iso-8859-1"?>
<!-- Generator: Adobe Illustrator 16.0.0, SVG Export Plug-In . SVG Version: 6.00 Build 0)  -->
<!DOCTYPE svg PUBLIC "-//W3C//DTD SVG 1.1//EN" "http://www.w3.org/Graphics/SVG/1.1/DTD/svg11.dtd">
<svg version="1.1" id="Capa_1" xmlns="http://www.w3.org/2000/svg" xmlns:xlink="http://www.w3.org/1999/xlink" x="0px" y="0px"
	 width="791.995px" height="791.995px" viewBox="0 0 791.995 791.995" style="enable-background:new 0 0 791.995 791.995;"
	 xml:space="preserve">
<g>
	<path d="M589.6,460.825c-44.312-27.892-106.504-23.332-157.699-22.468c8.09-15.622,5.591-33.334-9.26-47.108 c-18.967-17.582-47.146-13.115-65.601,2.034c-16.021,13.151-21.056,36.678-15.511,55.913c4.263,14.796,15.762,23.582,29.22,27.539 c-8.721,7.467-15.566,16.792-15.334,28.773c0.288,14.582,13.783,23.88,25.83,28.839c27.9,11.489,61.468-5.146,58.374-34.551 c44.656,3.799,91.124,9.056,116.759,50.981c32.229,52.719,0.521,113.656-46.486,142.365 c-80.953,49.439-196.291,10.607-249.641-60.52c-68.368-91.152-68.229-205.552-16.857-303.874 c47.591-91.086,127.839-154.421,201.622-222.845c7.189,17.981,16.904,38.889,34.402,52.198 c17.294,13.152,42.976,1.839,53.007-14.554c17.34-28.365,1.885-62.275-24.455-73.533c8.498-6.585,14.34-15.371,12.223-27.102 c-3.214-17.823-21.854-29.582-37.282-35.935c-16.625-6.845-37.987-10.978-54.306-1.151c-18.669,11.238-13.867,36.26-6.177,52.941 C291.634,93.831,201.058,222.134,165.309,346.435c-33.214,115.458-26.796,259.616,56.935,352.254 c63.529,70.291,165.427,103.653,258.344,90.483c98.173-13.914,158.35-91.867,164.275-187.896 C648.114,548.475,637.126,490.741,589.6,460.825z"/>
</g>
<g>
</g>
<g>
</g>
<g>
</g>
<g>
</g>
<g>
</g>
<g>
</g>
<g>
</g>
<g>
</g>
<g>
</g>
<g>
</g>
<g>
</g>
<g>
</g>
<g>
</g>
<g>
</g>
<g>
</g>
</svg>
