<?xml version="1.0" encoding="iso-8859-1"?>
<!-- Generator: Adobe Illustrator 16.0.0, SVG Export Plug-In . SVG Version: 6.00 Build 0)  -->
<!DOCTYPE svg PUBLIC "-//W3C//DTD SVG 1.1//EN" "http://www.w3.org/Graphics/SVG/1.1/DTD/svg11.dtd">
<svg version="1.1" id="Capa_1" xmlns="http://www.w3.org/2000/svg" xmlns:xlink="http://www.w3.org/1999/xlink" x="0px" y="0px"
	 width="791.995px" height="791.995px" viewBox="0 0 791.995 791.995" style="enable-background:new 0 0 791.995 791.995;"
	 xml:space="preserve">
<g>
	<g>
		<path d="M236.386,690.617c-1.014-197.82-21.577-396.271,7.59-593.059c17.19,6.593,46.018,15.028,54.204-7.287 c6.255-17.057-8.168-39.078-17.787-51.909c-11.416-15.224-27.449-32.058-47.317-34.54c-12.626-1.575-19.717,6.05-23.605,16.229 c-4.929-8.871-11.94-16.149-22.155-19.05c-14.752-4.2-29.674,5.481-38.5,16.541c-9.814,12.306-14.983,28.908-10.553,44.381 c5.241,18.302,24.344,26.782,42.077,27.645c-8.622,95.453-3.674,193.727-4.093,289.438 c-0.454,102.064-0.943,204.128-0.747,306.192c-42.513-0.721-85.693,45.77-46.41,82.579c13.809,12.937,35.065,9.529,49.951,0.871 c4.031-2.349,7.456-5.285,10.437-8.559c2.473,7.188,6.815,13.488,14.138,17.857c15.286,9.11,35.679,0.925,48.839-8.15 c14.022-9.663,27.031-25.83,25.705-43.776C276.612,705.031,255.4,695.235,236.386,690.617z"/>
		<path d="M673.187,51.442c-19.21-39.123-69.099-40.306-96.272-12.537c-2.918-15.393-10.231-29.202-28.019-31.257 c-22.057-2.544-44.363,19.922-56.891,35.11c-10.687,12.955-25.848,35.27-18.026,52.967c9.191,20.803,39.647,12.937,57.22,5.854 c11.514,108.515,6.665,217.243,0.303,325.962c-2.803,47.86-5.588,95.312-4.653,143.261c0.472,24.548,1.05,49.078,0.597,73.636 c-0.374,20.429-5.179,40.484-5.481,60.708c0,0.099,0.045,0.178,0.045,0.276c-15.464-0.569-30.999,5.908-36.214,22.182 c-5.178,16.149,5.757,33.828,16.069,45.253c11.033,12.217,27.423,21.096,44.114,18.765c8.533-1.192,14.299-6.335,18.223-13.105 c12.562,10.766,33.73,15.01,48.42,7.136c43.554-23.365,21.274-84.696-23.463-87.668c4.618-41.392,0.48-85.568,1.495-126.906 c1.299-52.656,3.559-105.285,5.837-157.905c4.387-101.432,11.807-204.199,6.833-305.774 C638.139,151.077,695.901,97.7,673.187,51.442z"/>
		<path d="M503.465,636.021c3.826-14.468,6.068-33.918-2.714-47.131c-10.722-16.131-30.492-8.55-43.66,0.062 c-27.084-53.145-34.318-116.94-52.434-173.44C382.68,346.975,356.869,280.003,343.86,209 c15.135-1.548,28.116-15.321,34.843-28.276c9.529-18.347,2.198-44.648-14.37-56.668c-28.579-20.74-59.667,1.459-65.646,30.42 c-20.1-13.399-48.732,4.502-54.916,30.439c-4.351,18.24,7.874,31.667,22.297,40.297c15.428,9.236,27.378,3.577,34.175-8.639 c16.639,67.986,31.658,136.364,48.607,204.271c15.9,63.68,32.983,133.027,66.91,189.999 c-16.772,8.755-34.549,23.009-34.087,43.544c0.347,15.438,12.501,27.672,25.688,33.918c12.501,5.917,29.211,8.488,41.383,0.383 c6.459-4.298,9.681-10.393,10.863-17.119c5.232,3.79,11.371,5.392,18.365,2.571C492.646,668.239,499.719,650.16,503.465,636.021z" />
	</g>
</g>
<g>
</g>
<g>
</g>
<g>
</g>
<g>
</g>
<g>
</g>
<g>
</g>
<g>
</g>
<g>
</g>
<g>
</g>
<g>
</g>
<g>
</g>
<g>
</g>
<g>
</g>
<g>
</g>
<g>
</g>
</svg>
