<?xml version="1.0" encoding="iso-8859-1"?>
<!-- Generator: Adobe Illustrator 16.0.0, SVG Export Plug-In . SVG Version: 6.00 Build 0)  -->
<!DOCTYPE svg PUBLIC "-//W3C//DTD SVG 1.1//EN" "http://www.w3.org/Graphics/SVG/1.1/DTD/svg11.dtd">
<svg version="1.1" id="Capa_1" xmlns="http://www.w3.org/2000/svg" xmlns:xlink="http://www.w3.org/1999/xlink" x="0px" y="0px"
	 width="189.188px" height="189.188px" viewBox="0 0 189.188 189.188" style="enable-background:new 0 0 189.188 189.188;"
	 xml:space="preserve">
<g>
	<path d="M82.245,24.719c0.875,3.932,2.46,8.577,6.381,10.213c3.042,1.269,6.201-0.241,8.338-2.465 c2.2-2.29,3.599-5.746,3.192-8.931c-0.371-2.91-2.118-4.975-4.459-6.282c2.182-1.794,3.813-4.116,3.909-7.124 c0.108-3.436-2.386-6.355-5.088-8.132c-2.959-1.945-6.9-2.562-10.266-1.44c-4.262,1.421-6.43,5.569-7.25,9.711 c-0.028,0.141-0.022,0.269-0.005,0.391C56.13,12.08,40.304,29.389,30.162,46.395c-10.459,17.536-14.965,37.3-14.268,57.6 c1.119,32.576,17.83,79.529,57.624,76.947c0.698,3.757,2.988,7.355,6.982,8.1c3.632,0.678,7.2-1.07,9.889-3.385 c2.577-2.218,4.588-5.658,4.094-9.148c-0.465-3.284-3.109-5.264-6.02-6.428c2.911-2.129,6.175-5.084,5.764-8.391 c-0.434-3.493-4.367-4.426-7.306-4.682c-5.665-0.492-17.836,1.879-16.563,9.835c0.211,1.319,1.126,2.768,2.271,3.798 c-5.933-0.143-10.902-0.803-16.166-4.477c-5.681-3.968-9.645-10.182-12.824-16.196c-6.929-13.11-10.196-28.566-11.241-43.259 C30.151,75.166,49.656,33.076,82.245,24.719z M28.936,109.297c1.237,15.998,5.447,32.488,13.537,46.424 c6.282,10.82,19.379,22.16,32.73,16.287c0.578-0.254,0.388-1.024-0.084-1.26c-1.187-2.58-3.463-4.756-0.989-7.193 c2.315-2.28,6.114-3.037,9.219-3.36c1.637-0.17,3.379-0.19,4.955,0.106c0.6,0.111,1.444,0.373,1.78,0.533 c0.536,0.258,0.825,0.513,0.944,0.684c0.242,0.352,0.219,0.581,0.194,0.736c-0.113,0.701-0.437,1.199-0.848,1.803 c-1.478,2.167-3.909,3.802-6.037,5.252c-1.008,0.688-0.989,2.421,0.357,2.734c2.795,0.653,6.265,1.824,6.858,5.026 c0.437,2.356-1.5,4.792-3.084,6.269c-1.877,1.75-4.461,2.933-7.055,2.707c-3.188-0.275-4.333-3.766-5.128-6.323 c0.297-0.923-0.161-2.06-1.444-2.043c-39.252,0.487-54.06-40.351-55.602-73.687c-1.797-38.851,19.833-80.659,58.953-91.949 c0.375-0.108,0.535-0.45,0.515-0.775c0.118-0.115,0.222-0.255,0.285-0.452c1.929-6.027,7.172-9.77,13.229-6.508 c2.021,1.089,3.616,2.899,4.071,5.175c0.618,3.09-2.682,5.437-4.947,6.713c-1.257,0.707-0.99,2.685,0.399,3.05 c5.495,1.444,6.5,6.79,2.963,10.963c-1.249,1.473-3.011,2.495-4.943,1.841c-3.224-1.092-4.19-6.555-4.736-9.311 c-0.23-1.161-1.355-1.336-2.176-0.9c-0.155-0.025-0.315-0.042-0.493-0.012C46.086,27.932,26.391,76.379,28.936,109.297z"/>
	<path d="M135.033,14.071c1.762-3.429,2.574-7.719-0.024-10.836c-2.487-2.984-6.896-3.493-10.507-2.956 c-3.467,0.515-7.344,2.243-8.913,5.586c-1.627,3.468-0.05,6.837,2.218,9.563c-2.099,0.405-4.021,1.42-5.352,3.255 c-1.68,2.317-2.038,5.461-1.024,8.124c1.091,2.863,3.564,4.693,6.642,4.753c1.826,0.035,3.66-0.685,5.218-1.579 c0.946-0.543,1.808-1.242,2.644-1.938c0.5-0.416,1.039-0.868,1.373-1.438c0.075-0.128,0.124-0.264,0.166-0.403 c9.107,7.509,15.547,14.773,20.49,25.878c6.135,13.784,8.826,29.203,9.416,44.196c0.984,25.019-5.572,58.761-33.248,66.5 c0.014-0.125,0.02-0.252-0.012-0.387c-0.887-3.843-3.149-7.937-7.41-8.593c-3.377-0.521-6.566,1.348-8.771,3.767 c-2.222,2.437-3.512,5.817-2.871,9.099c0.537,2.762,2.777,4.273,5.26,5.068c-1.602,2.434-2.486,5.18-1.854,8.229 c0.641,3.08,3.281,5.535,6.062,6.748c6.939,3.029,13.169-1.523,12.529-9.012c-0.031-0.357-0.151-0.652-0.322-0.896 c33.539-6.514,43.017-45.911,45.869-74.725C176.062,67.235,168.343,31.03,135.033,14.071z M169.521,100.336 c-1.24,15.125-4.129,30.426-10.509,44.276c-6.903,14.987-18.118,24.522-33.133,30.733c-0.338,0.14-0.507,0.402-0.544,0.673 c-0.936-0.08-1.88,0.47-1.792,1.679c0.159,2.172,0.017,4.59-2.015,5.85c-1.619,1.002-3.912,0.642-5.561-0.08 c-5.434-2.383-4.699-7.766-1.22-11.594c1.126-1.238,0.272-2.897-1.272-3.069c-1.984-0.222-4.681-0.942-4.986-3.302 c-0.271-2.103,0.931-4.183,2.244-5.717c1.398-1.634,3.334-2.846,5.533-2.723c2.94,0.165,4.606,4.044,5.613,6.271 c0.137,0.302,0.348,0.471,0.581,0.557c-0.198,0.84,0.485,1.896,1.621,1.695c30.216-5.358,37.123-42.311,36.715-67.819 c-0.25-15.637-3.203-31.757-9.354-46.172c-4.279-10.025-11.94-24.795-23.438-28.079c-0.868-0.248-1.701,0.611-1.622,1.402 c-0.404,0.096-0.814,0.188-1.163,0.388c-0.896,0.515-1.696,1.201-2.604,1.713c-1.199,0.677-2.547,1.217-3.933,1.302 c-1.692,0.104-3.299-0.839-3.964-2.418c-0.691-1.646-0.579-3.543,0.305-5.086c1.276-2.227,4.019-2.579,6.338-2.398 c1.34,0.104,2.115-1.804,1.109-2.678c-2.137-1.858-5.549-5.287-4.037-8.451c1.166-2.44,4.217-3.44,6.688-3.832 c2.429-0.385,5.498-0.038,7.271,1.808c2.064,2.147,0.572,5.504-0.74,7.948c-0.547,0.338-0.888,0.98-0.823,1.573 c-0.474,1.449,1.194,2.543,2.397,1.865C164.996,32.93,172.242,67.154,169.521,100.336z"/>
</g>
<g>
</g>
<g>
</g>
<g>
</g>
<g>
</g>
<g>
</g>
<g>
</g>
<g>
</g>
<g>
</g>
<g>
</g>
<g>
</g>
<g>
</g>
<g>
</g>
<g>
</g>
<g>
</g>
<g>
</g>
</svg>
