<?xml version="1.0" encoding="iso-8859-1"?>
<!-- Generator: Adobe Illustrator 16.0.0, SVG Export Plug-In . SVG Version: 6.00 Build 0)  -->
<!DOCTYPE svg PUBLIC "-//W3C//DTD SVG 1.1//EN" "http://www.w3.org/Graphics/SVG/1.1/DTD/svg11.dtd">
<svg version="1.1" id="Capa_1" xmlns="http://www.w3.org/2000/svg" xmlns:xlink="http://www.w3.org/1999/xlink" x="0px" y="0px"
	 width="791.999px" height="791.999px" viewBox="0 0 791.999 791.999" style="enable-background:new 0 0 791.999 791.999;"
	 xml:space="preserve">
<g>
	<g>
		<path d="M272.885,710.638c-0.322-0.062-0.581,0.009-0.894-0.009c5.928-102.953-2.53-207.498-6.93-310.326 c-4.542-106.119-7.654-212.148-8.012-318.356c12.143,4.56,26.119,5.177,35.06-5.786c9.612-11.785,9.371-29.203,5.418-43.125 c-3.917-13.833-13.824-28.56-29.042-30.929c-16.095-2.504-30.25,8.083-40.872,20.396c-1.851-8.897-5.785-17.016-15.228-19.689 c-12.241-3.469-24.518,6.993-31.304,15.934c-8.11,10.694-13.726,25.179-10.694,38.69c3.505,15.639,18.938,23.275,33.746,24.25 c-7.091,124.439-3.094,251.5,4.292,375.922c3.138,52.8,6.268,105.608,8.611,158.453c1.108,25.108,4.641,54.159,3.022,79.946 c-19.618,2.897-39.182,11.455-47.927,30.393c-6.84,14.808-5.07,32.307,3.174,46.157c7.573,12.724,20.691,21.289,35.739,19.099 c10.14-1.476,17.383-8.682,22.56-17.605c2.996,6.751,7.869,12.348,15.603,15.29c13.448,5.123,28.864-0.867,39.728-9.067 c11.311-8.53,21.29-21.719,20.494-36.58C308.428,725.159,289.302,713.83,272.885,710.638z"/>
		<path d="M374.247,352.367c19.189,4.095,49.143-8.727,60.347-15.156c39.933-22.926,75.172-62.153,97.436-102.158 c23.302-41.882,11.571-97.177-13.367-135.286c-27.54-42.088-75.109-60.758-123.134-54.838c1.377-14.423,0.036-30.33-12.179-39.665 c-10.336-7.904-24.411-5.857-35.444-0.724c-10.811,5.034-20.163,15.299-21.63,27.397c-1.118,9.219,3.255,16.488,9.639,21.979 c-11.91,3.773-22.98,10.363-26.029,23.203c-3.21,13.546,5.061,27.084,15.004,35.579c10.015,8.566,24.625,14.485,37.715,9.862 c15.612-5.517,18.84-23.499,18.411-38.296c0.054,0,0.089,0.018,0.143,0.018c61.563-7.001,98.965,44.181,101.629,101.103 c3.3,70.469-50.171,112.807-115.73,114.56c2.727-15.692-2.37-34.184-18.071-40.202c-13.931-5.338-30.455,2.906-41.194,11.365 c-10.551,8.307-20.432,22.256-16.846,36.321c3.255,12.769,15.684,17.794,28.452,19.734c-6.223,6-10.685,13.448-11.123,22.756 c-0.599,12.867,8.557,24.116,18.652,30.875c9.89,6.625,23.355,9.067,34.175,3.407 C372.745,378.127,374.935,364.599,374.247,352.367z"/>
		<path d="M619.201,681.086c-9.147-15.987-35.328-19.904-51.45-11.964c-8.154-42.437-34.434-85.759-55.885-122.035 c-23.855-40.344-50.681-79.731-81.252-115.399c12.84-0.572,27.611-5.338,32.557-17.812c4.22-10.632-3.729-22.47-10.694-29.776 c-13.457-14.109-49.026-32.109-60.615-6.035c-1.976,4.453-2.933,9.335-3.166,14.315c-4.846-3.675-10.515-5.741-17.374-4.462 c-10.989,2.047-17.311,14.414-20.127,24.053c-3.04,10.416-3.568,23.364,2.119,33.003c6.921,11.731,21.889,10.641,32.083,4.122 c3.389-2.164,5.964-4.569,8.119-7.448c47.319,82.128,96.614,159.321,132.872,247.342c-15.281-0.188-30.187,5.472-35.212,21.495 c-4.774,15.228,2.369,33.155,11.499,45.28c8.477,11.249,22.488,23.248,37.662,18.84c11.552-3.353,17.257-14.315,20.154-26.351 c5.284,7.556,12.58,12.867,22.64,11.776c16.006-1.753,27.469-17.016,33.844-30.536 C623.904,714.786,627.704,695.938,619.201,681.086z"/>
	</g>
</g>
<g>
</g>
<g>
</g>
<g>
</g>
<g>
</g>
<g>
</g>
<g>
</g>
<g>
</g>
<g>
</g>
<g>
</g>
<g>
</g>
<g>
</g>
<g>
</g>
<g>
</g>
<g>
</g>
<g>
</g>
</svg>
