<?xml version="1.0" encoding="iso-8859-1"?>
<!-- Generator: Adobe Illustrator 16.0.0, SVG Export Plug-In . SVG Version: 6.00 Build 0)  -->
<!DOCTYPE svg PUBLIC "-//W3C//DTD SVG 1.1//EN" "http://www.w3.org/Graphics/SVG/1.1/DTD/svg11.dtd">
<svg version="1.1" id="Capa_1" xmlns="http://www.w3.org/2000/svg" xmlns:xlink="http://www.w3.org/1999/xlink" x="0px" y="0px"
	 width="791.98px" height="791.979px" viewBox="0 0 791.98 791.979" style="enable-background:new 0 0 791.98 791.979;"
	 xml:space="preserve">
<g>
	<path d="M609.214,98.374c-1.543-15.549-12.361-25.306-25.416-31.218c7.585-4.916,13.267-11.798,14.117-22.192 c1.266-15.3-12.195-28.345-23.957-35.69c-14.237-8.888-32.798-12.167-48.772-6.375c-18.782,6.818-28.16,25.463-30.923,44.19 c-61.097-23.069-137.549,45.04-170.024,89.045c-55.461,75.159-39.256,169.498,12.389,240.379 c55.11,75.63,150.928,122.388,179.125,216.21c18.349,61.061-32.346,100.918-85.248,115.902 c-49.872,14.127-106.202,7.779-149.855-20.316c10.228-8.074,12.214-20.668,7.335-34.305c-7.456-20.842-30.895-30.709-51.378-31.365 c-17.674-0.564-32.974,12.121-36.327,29.111c-2.624,13.285,3.631,24.76,12.814,33.473c-32.484,9.609-38.868,46.795-19.919,79.096 c8.703,14.828,23.855,28.049,41.862,27.652c20.104-0.443,32.022-19.365,39.358-37.104c69.504,36.641,151.473,46.277,223.074,8.443 c67.444-35.635,95.826-110.193,84.934-182.996c-14.532-97.146-94.395-155.473-156.905-222.077 c-38.387-40.9-59.785-91.687-44.725-147.749c15.688-58.418,71.167-93.6,128.772-97.582c3.188,18.82,11.872,37.677,31.366,43.774 c16.806,5.266,34.758-3.539,47.387-14.099C600.834,132.115,610.877,115.17,609.214,98.374z"/>
</g>
<g>
</g>
<g>
</g>
<g>
</g>
<g>
</g>
<g>
</g>
<g>
</g>
<g>
</g>
<g>
</g>
<g>
</g>
<g>
</g>
<g>
</g>
<g>
</g>
<g>
</g>
<g>
</g>
<g>
</g>
</svg>
