<?xml version="1.0" encoding="iso-8859-1"?>
<!-- Generator: Adobe Illustrator 16.0.0, SVG Export Plug-In . SVG Version: 6.00 Build 0)  -->
<!DOCTYPE svg PUBLIC "-//W3C//DTD SVG 1.1//EN" "http://www.w3.org/Graphics/SVG/1.1/DTD/svg11.dtd">
<svg version="1.1" id="Capa_1" xmlns="http://www.w3.org/2000/svg" xmlns:xlink="http://www.w3.org/1999/xlink" x="0px" y="0px"
	 width="791.998px" height="791.998px" viewBox="0 0 791.998 791.998" style="enable-background:new 0 0 791.998 791.998;"
	 xml:space="preserve">
<g>
	<g>
		<path d="M645.502,87.255c11.354-4.664,20.537-12.532,20.253-26.034c-0.395-18.828-18.861-34.203-33.017-43.831 C616.875,6.593,596.2-2.52,576.642,0.632c-22.427,3.616-24.282,28.018-20.804,46.03c0.559,2.903,1.332,5.746,2.182,8.572 c-107.795-20.614-225.228-9.723-333.925,1.391c0.627-0.893,1.091-1.933,1.091-3.298c-0.043-14.516-3.521-29.47-17.565-36.496 c-11.484-5.755-25.132-3.53-36.29,1.752c-11.114,5.256-19.635,15.375-20.837,27.76c-1.014,10.445,5.067,19.214,12.807,26.025 c-14.971,2.474-30.174,7.713-35.749,22.479c-5.231,13.863,6.15,28.559,16.233,36.667c12.008,9.654,28.697,15.976,44.106,12.515 c14.997-3.367,20.924-16.801,21.997-30.561c16.294,6.339,37.75,5.188,53.864,5.695c33.67,1.074,67.537-1.709,101.199-2.482 c69.212-1.589,140.306,9.508,209.028-2.774c-4.741,11.509-5.771,24.935,7.104,31.583c13.983,7.215,33.172,1.263,46.554-4.543 c12.48-5.412,29.788-15.177,32.407-30.02C662.08,99.452,654.924,92.074,645.502,87.255z"/>
		<path d="M431.913,707.719c-10.634-94.74-11.965-192.846-6.837-287.938c2.302-42.741,4.845-85.542,2.603-128.342 c-0.593-11.338-1.177-34.735-8.383-49.328c14.369-0.25,30.482-9.259,36.813-20.829c7.661-14.009,3.332-31.385-3.899-44.57 c-6.726-12.257-18.982-24.875-33.619-26.249c-9.25-0.867-16.122,3.41-21.129,9.766c-2.715-7.447-7.619-13.623-16.303-16.019 c-13.279-3.676-27.589,4.965-36.685,13.854c-10.599,10.367-16.946,25.081-14.447,39.906c2.749,16.286,20.966,28.654,36.917,30.999 c-8.383,75.139-2.817,154.014-2.946,229.479c-0.137,81.529-3.049,163.324-0.764,244.828c-14.524-7.412-36.324-9.723-46.21,4.227 c-9.637,13.605-4.226,32.047,2.637,45.549c7.224,14.225,20.116,27.674,36.633,29.385c13.004,1.348,21.946-7.619,28.07-18.691 c11.905,26.498,47.903,38.771,74.143,17.188C489.358,755.57,468.76,700.1,431.913,707.719z"/>
	</g>
</g>
<g>
</g>
<g>
</g>
<g>
</g>
<g>
</g>
<g>
</g>
<g>
</g>
<g>
</g>
<g>
</g>
<g>
</g>
<g>
</g>
<g>
</g>
<g>
</g>
<g>
</g>
<g>
</g>
<g>
</g>
</svg>
